<svg width="64" height="64" viewBox="0 0 64 64" fill="none" xmlns="http://www.w3.org/2000/svg">
<path d="M38.75 61.4009L38.126 62.1819L38.751 61.4019L38.75 61.4009ZM33.25 57.0009L33.874 56.2189L33.249 56.9999L33.25 57.0009ZM30.75 57.0009L30.126 56.2189L30.751 56.9999L30.75 57.0009ZM21.459 6.99088L21.379 5.99288L21.459 6.98988V6.99088ZM11.104 20.0119L10.343 19.3629L11.103 20.0129L11.104 20.0119ZM12.989 15.4589L11.993 15.3799L12.989 15.4599V15.4589ZM10.422 31.1889L11.183 30.5409L10.423 31.1899L10.422 31.1889ZM10.422 20.8119L11.183 21.4599L10.423 20.8119H10.422ZM11.104 31.9899L10.343 32.6379L11.103 31.9899H11.104ZM37.989 46.8969L38.638 47.6579L37.988 46.8979L37.989 46.8969ZM52.897 20.0119L53.657 19.3629L52.897 20.0129V20.0119ZM42.002 45.0729L41.854 44.0839L42.001 45.0739L42.002 45.0729ZM22.002 45.0729L22.148 44.0839L22.001 45.0739L22.002 45.0729ZM27.708 26.2929C27.5204 26.1054 27.2659 26.0001 27.0006 26.0002C26.7354 26.0003 26.481 26.1057 26.2935 26.2934C26.106 26.481 26.0007 26.7355 26.0008 27.0007C26.0009 27.266 26.1064 27.5204 26.294 27.7079L27.708 26.2939V26.2929ZM31 31.0019L30.293 31.7089C30.3976 31.8137 30.5242 31.8939 30.6635 31.9439C30.8029 31.9938 30.9517 32.0122 31.099 31.9976C31.2463 31.9831 31.3886 31.936 31.5155 31.8598C31.6425 31.7836 31.7509 31.6801 31.833 31.5569L31 30.9999V31.0019ZM37.832 22.5559C37.9076 22.4467 37.9606 22.3235 37.9881 22.1936C38.0155 22.0637 38.0168 21.9296 37.9919 21.7992C37.967 21.6687 37.9164 21.5446 37.8429 21.4339C37.7695 21.3233 37.6748 21.2284 37.5643 21.1547C37.4538 21.0811 37.3297 21.0302 37.1993 21.005C37.0689 20.9798 36.9349 20.9808 36.8049 21.008C36.6749 21.0352 36.5516 21.088 36.4423 21.1634C36.3329 21.2387 36.2397 21.3351 36.168 21.4469L37.832 22.5559ZM40.5 40.7239C40.7278 40.5903 40.8935 40.3721 40.961 40.1168C41.0285 39.8615 40.9923 39.5899 40.8603 39.3612C40.7282 39.1325 40.5111 38.9653 40.2563 38.8961C40.0014 38.8269 39.7296 38.8614 39.5 38.9919L40.5 40.7239ZM46.489 29.8829C46.455 30.0097 46.4463 30.1421 46.4634 30.2723C46.4805 30.4025 46.5231 30.5281 46.5888 30.6418C46.6544 30.7556 46.7419 30.8553 46.846 30.9352C46.9502 31.0152 47.0691 31.0739 47.196 31.1079C47.3229 31.1419 47.4552 31.1506 47.5854 31.1335C47.7156 31.1163 47.8412 31.0737 47.9549 31.0081C48.0687 30.9424 48.1684 30.855 48.2484 30.7508C48.3283 30.6467 48.387 30.5277 48.421 30.4009L46.489 29.8829ZM46.725 34.5009C46.7926 34.387 46.8369 34.2608 46.8554 34.1297C46.8738 33.9985 46.8661 33.865 46.8325 33.7369C46.7989 33.6088 46.7402 33.4886 46.6598 33.3834C46.5794 33.2781 46.4789 33.1899 46.3642 33.1238C46.2494 33.0577 46.1227 33.0151 45.9913 32.9984C45.8599 32.9816 45.7265 32.9912 45.5988 33.0265C45.4712 33.0617 45.3518 33.122 45.2476 33.2038C45.1434 33.2856 45.0566 33.3872 44.992 33.5029L46.725 34.5009ZM42.61 36.6099C42.4277 36.7984 42.3267 37.0509 42.3288 37.3131C42.3309 37.5753 42.4359 37.8262 42.6212 38.0117C42.8065 38.1973 43.0572 38.3026 43.3194 38.3051C43.5816 38.3075 43.8343 38.2069 44.023 38.0249L42.61 36.6099ZM39.375 60.6199L33.875 56.2199L32.625 57.7809L38.126 62.1819L39.375 60.6199ZM30.126 56.2189L24.625 60.6199L25.874 62.1819L31.375 57.7819L30.126 56.2189ZM33.875 56.2199C33.3431 55.7944 32.6812 55.5626 32 55.5626C31.3188 55.5626 30.6579 55.7934 30.126 56.2189L31.376 57.7809C31.5533 57.6391 31.7735 57.5619 32.0005 57.5619C32.2275 57.5619 32.4477 57.6391 32.625 57.7809L33.875 56.2199ZM24.625 60.6199C24.478 60.7373 24.2998 60.8109 24.1128 60.8321C23.9258 60.8533 23.7367 60.8213 23.567 60.7399C23.3974 60.6584 23.2542 60.5307 23.1539 60.3715C23.0536 60.2123 23.0003 60.0281 23 59.8399H21C21 62.3549 23.91 63.7539 25.874 62.1819L24.625 60.6199ZM38.126 62.1819C40.09 63.7539 43 62.3549 43 59.8399H41C40.9999 60.0282 40.9466 60.2127 40.8462 60.3721C40.7459 60.5315 40.6025 60.6593 40.4327 60.7408C40.2629 60.8223 40.0736 60.8542 39.8864 60.8328C39.6993 60.8114 39.522 60.7376 39.375 60.6199L38.126 62.1819ZM36.54 5.18388L37.341 5.86588L38.637 4.34288L37.837 3.66188L36.54 5.18388ZM42.462 7.98688L43.509 8.07088L43.669 6.07688L42.62 5.99288L42.462 7.98688ZM49.93 14.4919L50.014 15.5389L52.008 15.3799L51.924 14.3319L49.93 14.4919ZM52.135 20.6609L52.817 21.4609L54.339 20.1629L53.657 19.3629L52.135 20.6609ZM52.817 30.5409L52.135 31.3409L53.658 32.6379L54.339 31.8379L52.817 30.5409ZM50.014 36.4619L49.93 37.5099L51.924 37.6699L52.008 36.6219L50.014 36.4619ZM43.509 43.9309L42.461 44.0149L42.621 46.0079L43.669 45.9249L43.509 43.9309ZM37.34 46.1359L36.54 46.8179L37.838 48.3399L38.638 47.6579L37.34 46.1359ZM27.46 46.8179L26.66 46.1369L25.363 47.6579L26.163 48.3399L27.46 46.8179ZM21.539 44.0149L20.491 43.9309L20.331 45.9249L21.379 46.0079L21.539 44.0149ZM14.07 37.5099L13.986 36.4629L11.993 36.6219L12.076 37.6689L14.07 37.5099ZM11.865 31.3409L11.183 30.5409L9.661 31.8379L10.343 32.6379L11.865 31.3409ZM11.183 21.4609L11.865 20.6609L10.343 19.3629L9.661 20.1629L11.183 21.4599V21.4609ZM13.986 15.5389L14.07 14.4919L12.076 14.3319L11.993 15.3799L13.986 15.5399V15.5389ZM20.491 8.07088L21.538 7.98688L21.379 5.99288L20.332 6.07688L20.491 8.07088ZM26.66 5.86588L27.46 5.18388L26.163 3.66188L25.363 4.34388L26.66 5.86588ZM21.538 7.98688C23.426 7.83643 25.2184 7.09421 26.66 5.86588L25.363 4.34388C24.2417 5.29941 22.8475 5.87582 21.379 5.99288L21.538 7.98688ZM14.07 14.4919C14.2023 12.8332 14.9212 11.2759 16.0977 10.0993C17.2742 8.92259 18.8324 8.20348 20.491 8.07088L20.332 6.07688C18.1992 6.24696 16.1968 7.17127 14.6839 8.68406C13.1709 10.1968 12.2463 12.1991 12.076 14.3319L14.07 14.4919ZM11.865 20.6609C13.0933 19.2193 13.8355 17.4269 13.986 15.5389L11.993 15.3799C11.8757 16.8481 11.2983 18.2419 10.343 19.3629L11.865 20.6609ZM11.183 30.5409C10.1038 29.2744 9.51108 27.6648 9.51108 26.0009C9.51108 24.3369 10.1038 22.7274 11.183 21.4609L9.661 20.1629C8.27328 21.7913 7.51108 23.8609 7.51108 26.0004C7.51108 28.1399 8.27328 30.2094 9.661 31.8379L11.183 30.5409ZM13.986 36.4629C13.8355 34.5749 13.0933 32.7825 11.865 31.3409L10.343 32.6379C11.2985 33.7592 11.8759 35.1533 11.993 36.6219L13.986 36.4629ZM20.491 43.9309C18.8323 43.7985 17.275 43.0797 16.0984 41.9032C14.9217 40.7267 14.2026 39.1695 14.07 37.5109L12.076 37.6689C12.2461 39.8018 13.1706 41.8043 14.6835 43.3173C16.1965 44.8303 18.1991 45.7548 20.332 45.9249L20.491 43.9309ZM36.54 46.8179C35.2734 47.8973 33.6647 48.4902 32.0005 48.4902C30.3363 48.4902 28.7266 47.8973 27.46 46.8179L26.163 48.3399C27.7914 49.7276 29.861 50.4898 32.0005 50.4898C34.14 50.4898 36.2096 49.7276 37.838 48.3399L36.54 46.8179ZM49.93 37.5099C49.7976 39.1689 49.0794 40.7264 47.9025 41.9031C46.7257 43.0798 45.168 43.7987 43.509 43.9309L43.669 45.9249C45.8017 45.7545 47.804 44.83 49.3168 43.317C50.8296 41.8041 51.7539 39.8026 51.924 37.6699L49.93 37.5099ZM52.135 31.3409C50.9067 32.7825 50.1645 34.5739 50.014 36.4619L52.008 36.6219C52.1251 35.1533 52.7025 33.7592 53.658 32.6379L52.135 31.3409ZM52.817 21.4609C53.8962 22.7274 54.4889 24.3369 54.4889 26.0009C54.4889 27.6648 53.8962 29.2744 52.817 30.5409L54.339 31.8379C55.7267 30.2094 56.4889 28.1399 56.4889 26.0004C56.4889 23.8609 55.7267 21.7913 54.339 20.1629L52.817 21.4599V21.4609ZM50.014 15.5389C50.1645 17.4269 50.9067 19.2193 52.135 20.6609L53.657 19.3629C52.7017 18.2419 52.1253 16.8481 52.008 15.3799L50.014 15.5399V15.5389ZM43.509 8.07088C45.1677 8.20322 46.7249 8.92208 47.9016 10.0986C49.0783 11.2751 49.7974 12.8332 49.93 14.4919L51.924 14.3319C51.7537 12.1993 50.8293 10.1971 49.3165 8.68436C47.8038 7.1716 45.8016 6.24719 43.669 6.07688L43.509 8.07088ZM37.341 5.86588C38.7826 7.09421 40.574 7.83643 42.462 7.98688L42.62 5.99288C41.1518 5.87561 39.758 5.29822 38.637 4.34288L37.341 5.86588ZM37.837 3.66188C36.2086 2.27416 34.14 1.51196 32.0005 1.51196C29.861 1.51196 27.7914 2.27416 26.163 3.66188L27.46 5.18388C28.7265 4.10469 30.3361 3.51196 32 3.51196C33.6639 3.51196 35.2735 4.10469 36.54 5.18388L37.837 3.66188ZM42.461 44.0149C42.257 44.0309 42.055 44.0549 41.852 44.0849L42.147 46.0619C42.304 46.0389 42.462 46.0209 42.621 46.0079L42.461 44.0149ZM41.852 44.0849C40.1857 44.3328 38.6224 45.0434 37.34 46.1359L38.638 47.6579C39.6355 46.8078 40.8507 46.2548 42.147 46.0619L41.854 44.0839L41.852 44.0849ZM41 45.0729V59.8399H43V45.0729H41ZM26.66 46.1369C25.3774 45.0439 23.8138 44.3319 22.147 44.0839L21.853 46.0619C23.1493 46.2548 24.3655 46.8078 25.363 47.6579L26.66 46.1369ZM22.147 44.0839C21.9448 44.0536 21.7417 44.0303 21.538 44.0139L21.379 46.0079C21.539 46.0209 21.696 46.0389 21.853 46.0619L22.147 44.0839ZM23 59.8399V45.0729H21V59.8399H23ZM26.293 27.7079L30.293 31.7089L31.707 30.2939L27.708 26.2939L26.293 27.7079ZM31.833 31.5569L37.832 22.5559L36.168 21.4459L30.168 30.4459L31.832 31.5559L31.833 31.5569ZM39.5 38.9899C32.326 43.1319 23.152 40.6739 19.01 33.4999L17.278 34.4999C21.972 42.6299 32.369 45.4169 40.5 40.7219L39.5 38.9899ZM19.01 33.4999C14.868 26.3249 17.326 17.1519 24.5 13.0099L23.5 11.2769C15.37 15.9719 12.583 26.3689 17.278 34.4999L19.01 33.4999ZM24.5 13.0099C31.674 8.86688 40.848 11.3249 44.99 18.4999L46.722 17.5009C42.028 9.37088 31.632 6.58288 23.5 11.2769L24.5 13.0099ZM44.99 18.4999C45.9775 20.2047 46.6183 22.0879 46.8756 24.0413C47.1328 25.9946 47.0015 27.9805 46.489 29.8829L48.421 30.4009C49.0015 28.2447 49.1502 25.9942 48.8586 23.7804C48.567 21.5666 47.8409 19.4332 46.722 17.5009L44.99 18.4999ZM44.992 33.5029C44.3381 34.6388 43.5372 35.6835 42.61 36.6099L44.023 38.0239C45.0747 36.9731 45.9832 35.7892 46.725 34.5009L44.992 33.5029Z" fill="#1C2024"/>
</svg>
