<svg width="64" height="64" viewBox="0 0 64 64" fill="none" xmlns="http://www.w3.org/2000/svg">
<path d="M23.458 4.6721L24.4 4.3381L24.113 3.5271L23.268 3.6901L23.458 4.6721ZM38.472 4.8641L38.686 3.8871L37.846 3.7021L37.538 4.5051L38.472 4.8641ZM53.139 22.8901L53.015 23.8831L53.139 22.8911V22.8901ZM47 47.9981C46.7348 47.9981 46.4804 48.1035 46.2929 48.291C46.1054 48.4785 46 48.7329 46 48.9981C46 49.2633 46.1054 49.5177 46.2929 49.7052C46.4804 49.8927 46.7348 49.9981 47 49.9981V47.9981ZM51 48.9981H52C52 48.7329 51.8946 48.4785 51.7071 48.291C51.5196 48.1035 51.2652 47.9981 51 47.9981V48.9981ZM45 43.9981C45.2652 43.9981 45.5196 43.8927 45.7071 43.7052C45.8946 43.5177 46 43.2633 46 42.9981C46 42.7329 45.8946 42.4785 45.7071 42.291C45.5196 42.1035 45.2652 41.9981 45 41.9981V43.9981ZM41 42.9981H40C40 43.2633 40.1054 43.5177 40.2929 43.7052C40.4804 43.8927 40.7348 43.9981 41 43.9981V42.9981ZM50.93 45.1631C50.974 45.4247 51.1202 45.6582 51.3363 45.812C51.5525 45.9659 51.8209 46.0276 52.0825 45.9836C52.3441 45.9396 52.5776 45.7934 52.7314 45.5773C52.8853 45.3611 52.947 45.0927 52.903 44.8311L50.93 45.1631ZM41.07 46.8311C41.026 46.5695 40.8798 46.336 40.6637 46.1822C40.4475 46.0283 40.1791 45.9666 39.9175 46.0106C39.6559 46.0546 39.4224 46.2008 39.2686 46.4169C39.1147 46.6331 39.053 46.9015 39.097 47.1631L41.07 46.8311ZM50 52.9981C50 53.2633 50.1054 53.5177 50.2929 53.7052C50.4804 53.8927 50.7348 53.9981 51 53.9981C51.2652 53.9981 51.5196 53.8927 51.7071 53.7052C51.8946 53.5177 52 53.2633 52 52.9981H50ZM42 38.9981C42 38.7329 41.8946 38.4785 41.7071 38.291C41.5196 38.1035 41.2652 37.9981 41 37.9981C40.7348 37.9981 40.4804 38.1035 40.2929 38.291C40.1054 38.4785 40 38.7329 40 38.9981H42ZM16.476 7.8301C18.7845 6.85824 21.1877 6.12898 23.647 5.6541L23.268 3.6901C20.6726 4.19143 18.1363 4.96124 15.7 5.9871L16.476 7.8301ZM5.196 12.5801L16.476 7.8301L15.7 5.9871L4.42 10.7371L5.196 12.5801ZM7.736 21.8981L5.196 12.5801L3.266 13.1061L5.807 22.4231L7.736 21.8981ZM13.718 21.1511L7.736 21.8981L7.985 23.8821L13.966 23.1351L13.718 21.1511ZM15.118 51.9151L15.965 23.1951L13.966 23.1351L13.119 51.8551L15.119 51.9151H15.118ZM31 54.9981C25.8575 55.0027 20.7397 54.2864 15.796 52.8701L15.244 54.7921C20.3671 56.26 25.6707 57.0025 31 56.9981V54.9981ZM53.264 21.8981L47.282 21.1511L47.034 23.1351L53.015 23.8831L53.264 21.8981ZM55.804 12.5801L53.264 21.8981L55.193 22.4241L57.734 13.1061L55.804 12.5801ZM44.524 7.8301L55.804 12.5801L56.581 10.7371L45.301 5.9871L44.524 7.8301ZM38.257 5.8401C40.397 6.3101 42.495 6.9761 44.524 7.8301L45.301 5.9871C43.1647 5.08757 40.9499 4.38466 38.686 3.8871L38.257 5.8401ZM31 4.9981C28.6005 4.99971 26.209 4.72354 23.873 4.1751L23.415 6.1221C25.852 6.6951 28.391 6.9981 31 6.9981V4.9981ZM31 8.9981C29.6295 8.99831 28.289 8.59629 27.1448 7.84188C26.0005 7.08747 25.1028 6.01385 24.563 4.7541L22.725 5.5431C23.4192 7.16235 24.5732 8.54231 26.0442 9.51197C27.5151 10.4816 29.2382 10.9983 31 10.9981V8.9981ZM24.563 4.7541C24.5042 4.61721 24.4499 4.47847 24.4 4.3381L22.515 5.0061C22.58 5.1881 22.65 5.3661 22.725 5.5431L24.563 4.7541ZM38.127 4.1751C35.791 4.72352 33.3995 4.99969 31 4.9981V6.9981C33.609 6.9981 36.148 6.6951 38.585 6.1221L38.127 4.1751ZM37.538 4.5051C37.5063 4.58907 37.4719 4.67242 37.437 4.7551L39.275 5.5431C39.32 5.4371 39.364 5.3301 39.405 5.2221L37.538 4.5051ZM37.437 4.7551C36.8969 6.01448 35.9991 7.08768 34.8548 7.84171C33.7106 8.59575 32.3703 8.99747 31 8.9971V10.9971C34.714 10.9971 37.9 8.7481 39.275 5.5421L37.437 4.7531V4.7551ZM57.734 13.1061C57.8617 12.6384 57.8152 12.1403 57.6031 11.7043C57.391 11.2684 57.0278 10.9243 56.581 10.7361L55.804 12.5801L57.734 13.1061ZM53.015 23.8831C53.4929 23.9429 53.9763 23.8282 54.3764 23.5602C54.7765 23.2922 55.0665 22.8888 55.193 22.4241L53.264 21.8981L53.015 23.8831ZM47.034 23.1351L47.282 21.1511C46.9957 21.1153 46.7051 21.1419 46.4301 21.2291C46.1551 21.3162 45.9022 21.4618 45.6887 21.6559C45.4753 21.85 45.3063 22.0879 45.1935 22.3534C45.0806 22.6189 45.0266 22.9057 45.035 23.1941L47.034 23.1351ZM13.119 51.8551C13.08 53.1891 13.93 54.4151 15.244 54.7921L15.796 52.8701C15.5929 52.8089 15.416 52.6818 15.2932 52.5089C15.1704 52.3359 15.1088 52.127 15.118 51.9151L13.119 51.8551ZM13.966 23.1351L15.965 23.1951C15.9736 22.9065 15.9206 22.6196 15.8078 22.3538C15.695 22.0881 15.526 21.85 15.3124 21.6558C15.0988 21.4616 14.8457 21.3159 14.5705 21.2288C14.2953 21.1417 14.0044 21.1152 13.718 21.1511L13.966 23.1351ZM5.807 22.4251C5.93375 22.8896 6.2238 23.2928 6.62389 23.5606C7.02399 23.8284 7.50727 23.9419 7.985 23.8821L7.736 21.8981L5.807 22.4251ZM4.419 10.7361C3.97222 10.9243 3.60999 11.2684 3.39791 11.7043C3.18582 12.1403 3.1383 12.6384 3.266 13.1061L5.197 12.5791L4.419 10.7361ZM58 45.9981C58 52.6261 52.627 57.9981 46 57.9981V59.9981C53.732 59.9981 60 53.7301 60 45.9981H58ZM34 45.9981C34 39.3711 39.373 33.9981 46 33.9981V31.9981C38.268 31.9981 32 38.2661 32 45.9981H34ZM46 33.9981C46.1 33.9981 46.2 33.9991 46.3 34.0021L46.349 32.0021C46.2327 31.9993 46.1163 31.998 46 31.9981V33.9981ZM46.3 34.0021C52.789 34.1601 58 39.4701 58 45.9981H60C60 38.3831 53.92 32.1881 46.349 32.0021L46.3 34.0021ZM45.035 23.1941L45.325 33.0321L47.324 32.9721L47.034 23.1351L45.035 23.1941ZM46 57.9981C42.907 57.9981 40.089 56.8281 37.96 54.9071L36.62 56.3911C39.1901 58.7169 42.5338 60.0027 46 59.9981V57.9981ZM37.96 54.9071C36.7117 53.7832 35.7139 52.4091 35.0316 50.8742C34.3493 49.3392 33.9979 47.6778 34 45.9981H32C32 50.1221 33.784 53.8301 36.62 56.3911L37.96 54.9071ZM37.179 54.6551C35.151 54.8821 33.089 54.9981 31 54.9981V56.9981C33.164 56.9981 35.3 56.8781 37.401 56.6431L37.179 54.6551ZM47 49.9981H51V47.9981H47V49.9981ZM45 41.9981H41V43.9981H45V41.9981ZM49.536 49.5341C49.0717 49.9985 48.5204 50.3669 47.9137 50.6183C47.307 50.8697 46.6567 50.999 46 50.999C45.3433 50.999 44.693 50.8697 44.0863 50.6183C43.4796 50.3669 42.9283 49.9985 42.464 49.5341L41.05 50.9481C41.7 51.5982 42.4717 52.1139 43.3211 52.4657C44.1704 52.8175 45.0807 52.9986 46 52.9986C46.9193 52.9986 47.8296 52.8175 48.679 52.4657C49.5283 52.1139 50.3 51.5982 50.95 50.9481L49.536 49.5341ZM42.464 42.4631C42.9283 41.9987 43.4796 41.6302 44.0863 41.3789C44.693 41.1275 45.3433 40.9982 46 40.9982C46.6567 40.9982 47.307 41.1275 47.9137 41.3789C48.5204 41.6302 49.0717 41.9977 49.536 42.4621L50.95 41.0481C50.3 40.398 49.5283 39.8823 48.679 39.5305C47.8296 39.1787 46.9193 38.9976 46 38.9976C45.0807 38.9976 44.1704 39.1787 43.3211 39.5305C42.4717 39.8823 41.7 40.397 41.05 41.0471L42.464 42.4631ZM49.536 42.4621C50.271 43.1946 50.7584 44.1397 50.93 45.1631L52.903 44.8331C52.6627 43.3986 51.9798 42.0752 50.95 41.0481L49.536 42.4621ZM42.464 49.5341C41.729 48.8016 41.2415 47.8565 41.07 46.8331L39.097 47.1631C39.3373 48.5976 40.0202 49.921 41.05 50.9481L42.464 49.5341ZM50.167 48.7631C49.987 49.0351 49.777 49.2941 49.536 49.5341L50.95 50.9481C51.2794 50.6189 51.5751 50.2578 51.833 49.8701L50.167 48.7631ZM50 48.9981V49.3171H52V48.9981H50ZM50 49.3171V52.9981H52V49.3171H50ZM41.833 43.2331C42.013 42.9621 42.222 42.7031 42.464 42.4631L41.05 41.0471C40.715 41.3821 40.421 41.7441 40.167 42.1261L41.833 43.2331ZM42 42.9981V42.6791H40V43.0001H42V42.9981ZM42 42.6791V39.0001H40V42.6791H42Z" fill="#1C2024"/>
</svg>
